<svg id="acumen_icon" data-name="acumen icon" xmlns="http://www.w3.org/2000/svg" width="23" height="23" viewBox="0 0 23 23">
  <circle id="Ellipse_1" data-name="Ellipse 1" cx="11.5" cy="11.5" r="11.5" fill="#154982"/>
  <g id="Group_9" data-name="Group 9" transform="translate(4.351 2.486)">
    <g id="Group_8" data-name="Group 8" transform="translate(0 4.055)">
      <path id="Path_9" data-name="Path 9" d="M220.406,41.433a5.731,5.731,0,0,1-2.351,4.415,8.616,8.616,0,0,1-5.293,1.818V46.153a7.084,7.084,0,0,0,4.354-1.487,4.25,4.25,0,0,0,1.778-3.234Z" transform="translate(-208.943 -40.865)" fill="#fff"/>
      <path id="Path_10" data-name="Path 10" d="M216.236,43.517a1.587,1.587,0,1,0-1.587-1.587,1.587,1.587,0,0,0,1.587,1.587" transform="translate(-209.848 -40.343)" fill="#fff" fill-rule="evenodd"/>
      <path id="Path_11" data-name="Path 11" d="M218.94,47.043a6.974,6.974,0,1,1-11.9-2.035l1.161.96a5.467,5.467,0,0,0,.61,7.6,7.079,7.079,0,0,1,2.689-3.079A8.613,8.613,0,0,1,216.78,49.2l-.125,1.5a7.082,7.082,0,0,0-4.343,1.064,5.554,5.554,0,0,0-2.219,2.644,5.466,5.466,0,0,0,7.434-6.846Z" transform="translate(-205.428 -42.579)" fill="#fff"/>
    </g>
    <g id="stars" transform="translate(8.935 0)">
      <path id="Path_12" data-name="Path 12" d="M224.638,32.723l.376.831.907.1a.283.283,0,0,1,.159.491l-.674.614.184.894a.283.283,0,0,1-.417.3l-.793-.451-.793.452a.283.283,0,0,1-.415-.31l.183-.886-.674-.614a.283.283,0,0,1-.019-.4.28.28,0,0,1,.178-.091l.907-.1.375-.831a.283.283,0,0,1,.516,0" transform="translate(-222.588 -32.556)" fill="#fff"/>
    </g>
  </g>
</svg>
