<svg id="Group_7" data-name="Group 7" xmlns="http://www.w3.org/2000/svg" width="32.671" height="33.319" viewBox="0 0 32.671 33.319">
  <path id="Path_9" data-name="Path 9" d="M220.848,75.413v.9s-3.172-.314-6.291,3.707a5.184,5.184,0,0,0-1.174,4.19,11.4,11.4,0,0,0,1.684,4.463s2.14,3.2,2.61,3.916a12.074,12.074,0,0,1,2.193,5.221,7.085,7.085,0,0,1-.665,4.229,11.469,11.469,0,0,1-5.338,5.117,6.212,6.212,0,0,1-3.224.8V107.1a6.089,6.089,0,0,0,2.9-.731,10.757,10.757,0,0,0,4.359-4.686,5.639,5.639,0,0,0-.091-3.877,15.339,15.339,0,0,0-2.193-4.32s-2.166-3.093-2.676-4.02a9.88,9.88,0,0,1-1.371-5.038A7.776,7.776,0,0,1,213.3,79.72a14.009,14.009,0,0,1,3.5-3.055,7.946,7.946,0,0,1,4.046-1.252" transform="translate(-188.177 -75.413)" fill="#404041"/>
  <rect id="Rectangle_13" data-name="Rectangle 13" width="1.932" height="26.627" transform="translate(0.001 2.962)" fill="#404041"/>
  <rect id="Rectangle_14" data-name="Rectangle 14" width="1.932" height="26.627" transform="translate(6.906 2.962)" fill="#404041"/>
  <path id="Path_10" data-name="Path 10" d="M97.838,150.882l.5.731,3.342-2.324-.522-.757Z" transform="translate(-95.409 -135.545)" fill="#404041"/>
  <path id="Path_11" data-name="Path 11" d="M116.577,169.514l3.583-3.494,4.356-4.5s1.37-1.39,2.174-1.39c0,0,.7,0,.69,1.106a3.76,3.76,0,0,1-.245,1.317l-1.258,3.552-.905,2.536-.313.911a.927.927,0,0,0,.205.857s.406.607,1.346.162a6.445,6.445,0,0,0,1.517-1.425l2.575-2.6s2.3-2.173,2.8-2.476a1.458,1.458,0,0,1,2.115.5,8.4,8.4,0,0,1,.764,1.782,8.606,8.606,0,0,0,1.39,2.575,1.6,1.6,0,0,0,2.075.391,10.626,10.626,0,0,0,2.036-1.517,14.1,14.1,0,0,1-3.328,3.241,2.471,2.471,0,0,1-.964.432.95.95,0,0,1-.8-.212,4.442,4.442,0,0,1-1.005-1.275s-1.057-1.723-1.324-2.029a6.421,6.421,0,0,0-1.327-1.336,1.416,1.416,0,0,0-1.591.054,12.739,12.739,0,0,0-1.4,1.315s-6.307,6.291-6.7,6.457c0,0-.507.4-.874.218,0,0-.293-.127-.2-.771l1.2-4.4.747-2.707s.392-1.214-.234-1.762c0,0-.685-.96-2.751.891l-4.261,3.691a.077.077,0,0,1-.1-.079" transform="translate(-110.82 -145.08)" fill="#f69227"/>
  <path id="Path_12" data-name="Path 12" d="M116.434,169.373l.021.021,3.584-3.495,4.356-4.5h0l.06-.059a9.28,9.28,0,0,1,.892-.762,4.417,4.417,0,0,1,.625-.392,1.373,1.373,0,0,1,.575-.168h0a.6.6,0,0,1,.341.144,1.114,1.114,0,0,1,.318.91v.03c0,.007,0,.026,0,.058a4.453,4.453,0,0,1-.246,1.244l.029.009-.028-.01-1.258,3.551-.9,2.538-.313.911a.817.817,0,0,0-.033.243.962.962,0,0,0,.244.642l.023-.019-.025.016a.72.72,0,0,0,.177.171.938.938,0,0,0,.55.168,1.527,1.527,0,0,0,.657-.167,6.421,6.421,0,0,0,1.527-1.431l-.023-.02.021.021,2.575-2.6-.021-.021.02.022.1-.094c.224-.21.789-.739,1.353-1.249.283-.255.564-.5.8-.707a5.317,5.317,0,0,1,.54-.422h0l0,0a1.626,1.626,0,0,1,.842-.257,1.459,1.459,0,0,1,1.226.751l.024-.017-.025.016,0,.007a8.58,8.58,0,0,1,.756,1.769s.145.43.391.967A6.3,6.3,0,0,0,137.2,168.8l.021-.02-.025.017a1.587,1.587,0,0,0,.326.312,1.563,1.563,0,0,0,.929.312,1.884,1.884,0,0,0,.859-.224h0s.448-.272.928-.6c.239-.162.487-.339.69-.5a1.913,1.913,0,0,0,.428-.428l-.051-.031-.014.02a14.149,14.149,0,0,1-3.306,3.212h0l0,0a2.443,2.443,0,0,1-.947.424h0a.76.76,0,0,1-.164.016.915.915,0,0,1-.6-.223h0l-.006,0a4.491,4.491,0,0,1-.991-1.261h0s-.264-.431-.562-.9c-.149-.234-.306-.478-.443-.683a5.461,5.461,0,0,0-.322-.45l-.023.02.024-.017a6.439,6.439,0,0,0-1.333-1.343h0a1.45,1.45,0,0,0-.775-.225,1.471,1.471,0,0,0-.85.279h0a12.758,12.758,0,0,0-1.4,1.318l.021.021-.021-.021-.071.071c-.347.346-1.912,1.9-3.436,3.394-.763.745-1.514,1.473-2.1,2.025-.292.276-.542.508-.731.675-.094.084-.173.151-.233.2l-.076.059a.265.265,0,0,1-.044.027h0l0,0,0,0a1.523,1.523,0,0,1-.224.14.953.953,0,0,1-.413.117.457.457,0,0,1-.2-.045h0l0,0,0,0,0,0,0,0a.277.277,0,0,1-.1-.1.711.711,0,0,1-.1-.4,1.6,1.6,0,0,1,.02-.241l-.03,0,.029.008,1.2-4.4.747-2.708-.029-.007.029.009a2.946,2.946,0,0,0,.123-.811,1.269,1.269,0,0,0-.366-.983l-.02.023.024-.018a.79.79,0,0,0-.649-.261,3.513,3.513,0,0,0-2.146,1.147l.02.022-.02-.023-4.261,3.691.02.023-.01-.029v0a.075.075,0,0,1-.021,0,.039.039,0,0,1-.027-.008c-.007-.006-.015-.017-.017-.046l-.03,0,.021.021-.021-.021-.03,0a.117.117,0,0,0,.038.089.1.1,0,0,0,.065.022.141.141,0,0,0,.04-.005l.006,0,4.267-3.695a3.465,3.465,0,0,1,2.106-1.132.863.863,0,0,1,.464.12.55.55,0,0,1,.1.081l.024.026.005.007v0h0l0,0,0,0a1.212,1.212,0,0,1,.345.938,2.826,2.826,0,0,1-.06.555c-.015.073-.03.132-.041.174-.005.021-.01.036-.014.048l0,.016h0l-.748,2.708-1.2,4.406v0a1.647,1.647,0,0,0-.02.25.754.754,0,0,0,.114.442.31.31,0,0,0,.12.111l.012-.027-.013.027a.51.51,0,0,0,.229.051,1.027,1.027,0,0,0,.465-.136,1.511,1.511,0,0,0,.212-.136l-.018-.023.012.027a.332.332,0,0,0,.059-.036c.093-.067.265-.217.5-.428,1.621-1.48,6.152-6,6.152-6h0c.45-.472.8-.8,1.034-1.01.118-.105.208-.18.268-.23l.068-.054.023-.017-.018-.024.017.025a1.411,1.411,0,0,1,.816-.268,1.437,1.437,0,0,1,.536.107,1.351,1.351,0,0,1,.152.074l.04.024.01.006,0,0,.017-.025-.018.024a6.72,6.72,0,0,1,.976.9c.112.127.2.233.256.308l.065.088.016.023.005.008h0v0a5.35,5.35,0,0,1,.317.444c.205.306.456.7.656,1.021l.249.4c.062.1.1.161.1.161l.025-.016-.026.015a4.481,4.481,0,0,0,1.013,1.284l.018-.024-.02.023a.972.972,0,0,0,.643.237.8.8,0,0,0,.182-.018l-.007-.029,0,.03a2.505,2.505,0,0,0,.978-.439l-.018-.024.017.024a14.118,14.118,0,0,0,3.336-3.248l-.025-.017-.026-.015a1.884,1.884,0,0,1-.413.411c-.3.242-.706.516-1.033.729-.164.107-.308.2-.412.263l-.123.076-.044.027.016.026-.013-.027a1.822,1.822,0,0,1-.832.218,1.5,1.5,0,0,1-.893-.3,1.629,1.629,0,0,1-.234-.206c-.027-.029-.046-.052-.059-.068l-.015-.018,0-.007h0v0a6.261,6.261,0,0,1-.994-1.6c-.123-.268-.22-.508-.287-.682-.033-.086-.059-.157-.076-.205s-.026-.075-.026-.075a8.473,8.473,0,0,0-.767-1.788h0a1.517,1.517,0,0,0-1.276-.777,1.673,1.673,0,0,0-.881.271l.017.024-.016-.026a6.675,6.675,0,0,0-.652.518c-.859.74-2.153,1.963-2.153,1.963l-2.576,2.605h0a10.6,10.6,0,0,1-1.147,1.155,3.228,3.228,0,0,1-.275.209c-.03.02-.052.033-.066.042l-.016.009,0,0h0l.013.027-.013-.027a1.477,1.477,0,0,1-.631.16.876.876,0,0,1-.516-.157.735.735,0,0,1-.123-.107c-.014-.015-.023-.027-.03-.035l-.007-.009,0,0h0v0h0a.9.9,0,0,1-.229-.6.85.85,0,0,1,.015-.164.467.467,0,0,1,.01-.046l0-.012v0l-.028-.009.028.009.313-.91.905-2.537,1.258-3.552h0a4.515,4.515,0,0,0,.249-1.261c0-.045,0-.067,0-.068l-.03,0h.03v-.023a1.15,1.15,0,0,0-.357-.969.644.644,0,0,0-.363-.144h0a1.555,1.555,0,0,0-.693.221,7.8,7.8,0,0,0-1.5,1.178l-4.356,4.5-3.592,3.5v.014Z" transform="translate(-110.677 -144.939)" fill="#404041"/>
  <path id="Path_13" data-name="Path 13" d="M105.41,246.655a.679.679,0,0,0,.722-.036.406.406,0,0,0,.146-.328.42.42,0,0,0-.085-.28.776.776,0,0,0-.331-.187.922.922,0,0,1-.287-.133.2.2,0,0,1-.069-.153.2.2,0,0,1,.07-.158.255.255,0,0,1,.177-.063.35.35,0,0,1,.2.056.3.3,0,0,1,.118.161l.19-.106a.459.459,0,0,0-.187-.226.582.582,0,0,0-.31-.079.5.5,0,0,0-.349.122.4.4,0,0,0-.135.312.337.337,0,0,0,.094.243.937.937,0,0,0,.33.192l.051.02c.2.08.305.177.305.291a.224.224,0,0,1-.078.178.312.312,0,0,1-.209.066.393.393,0,0,1-.227-.063.4.4,0,0,1-.142-.188l-.2.113a.489.489,0,0,0,.2.245m-.8-.766a.8.8,0,0,0-.187-.555.637.637,0,0,0-.5-.208.672.672,0,0,0-.526.225.858.858,0,0,0-.2.594.814.814,0,0,0,.2.577.687.687,0,0,0,.531.22.74.74,0,0,0,.407-.107.825.825,0,0,0,.28-.335l-.19-.1a.652.652,0,0,1-.207.27.486.486,0,0,1-.29.089.452.452,0,0,1-.366-.165.733.733,0,0,1-.145-.455h1.188Zm-1.174-.132a.479.479,0,0,1,.148-.313.449.449,0,0,1,.316-.118.428.428,0,0,1,.465.431Zm-1.02-.577H102.2v1.5h.214Zm-.22-.47a.155.155,0,0,0,.114.046.158.158,0,0,0,.115-.046.159.159,0,0,0,0-.225.161.161,0,0,0-.114-.046.156.156,0,0,0-.113.046.159.159,0,0,0,0,.225m-1.247.765a.669.669,0,0,1,.134.444.683.683,0,0,1-.144.458.476.476,0,0,1-.383.17.424.424,0,0,1-.353-.161.85.85,0,0,1,.006-.9.447.447,0,0,1,.367-.166.461.461,0,0,1,.372.16m.131-.3v.28a.516.516,0,0,0-.206-.243.582.582,0,0,0-.321-.092.64.64,0,0,0-.509.221,1,1,0,0,0,0,1.175.629.629,0,0,0,.5.219.587.587,0,0,0,.326-.091.546.546,0,0,0,.212-.251v.3a1.161,1.161,0,0,1-.016.227.385.385,0,0,1-.053.129.373.373,0,0,1-.166.134.607.607,0,0,1-.249.049.52.52,0,0,1-.29-.071.3.3,0,0,1-.133-.209h-.259a.49.49,0,0,0,.2.349.8.8,0,0,0,.464.116.882.882,0,0,0,.4-.082.513.513,0,0,0,.238-.248.73.73,0,0,0,.053-.231q.016-.155.016-.45v-1.235Zm-2.382,1.5a.825.825,0,0,0,.269-.182.774.774,0,0,0,.175-.258.794.794,0,0,0-.179-.877.8.8,0,0,0-.265-.175.834.834,0,0,0-.314-.06.807.807,0,0,0-.308.06.782.782,0,0,0-.261.175.8.8,0,0,0-.234.569.817.817,0,0,0,.059.31.751.751,0,0,0,.172.256.858.858,0,0,0,.266.182.78.78,0,0,0,.307.063.815.815,0,0,0,.314-.063m-.723-.309a.645.645,0,0,1,0-.873.579.579,0,0,1,.834,0,.643.643,0,0,1,0,.873.576.576,0,0,1-.833,0m-1.181-2.305h-.214v2.612h.214Zm-1.505,2.614a.825.825,0,0,0,.269-.182.79.79,0,0,0,.236-.566.794.794,0,0,0-.239-.569.811.811,0,0,0-.266-.175.835.835,0,0,0-.314-.06.806.806,0,0,0-.308.06.8.8,0,0,0-.5.745.808.808,0,0,0,.059.31.75.75,0,0,0,.171.256.855.855,0,0,0,.267.182.775.775,0,0,0,.306.063.815.815,0,0,0,.314-.063m-.724-.309a.645.645,0,0,1,0-.873.579.579,0,0,1,.834,0,.643.643,0,0,1,0,.873.576.576,0,0,1-.833,0m-2.2.306V245.9a.71.71,0,0,1,.112-.442.418.418,0,0,1,.349-.14.36.36,0,0,1,.289.109.5.5,0,0,1,.093.332v.922h.211v-1.014a.49.49,0,0,0-.537-.536.629.629,0,0,0-.3.071.6.6,0,0,0-.224.215v-.231h-.2v1.5Zm-2.143,0V245.9a.707.707,0,0,1,.112-.442.42.42,0,0,1,.35-.14.361.361,0,0,1,.289.109.5.5,0,0,1,.093.332v.922h.21v-1.014a.491.491,0,0,0-.538-.536.63.63,0,0,0-.3.071.606.606,0,0,0-.223.215v-1.348H90v2.612Zm-.96-1.449a.879.879,0,0,0-.211-.075,1.192,1.192,0,0,0-.254-.026.782.782,0,0,0-.822.822.788.788,0,0,0,.219.575.748.748,0,0,0,.561.225,1.241,1.241,0,0,0,.285-.031.915.915,0,0,0,.242-.093V246.4a.967.967,0,0,1-.243.127.764.764,0,0,1-.245.042.591.591,0,0,1-.437-.171.581.581,0,0,1-.171-.432.669.669,0,0,1,.165-.474.577.577,0,0,1,.443-.178.834.834,0,0,1,.243.036.817.817,0,0,1,.223.108Zm-1.942.662a.8.8,0,0,0-.187-.555.635.635,0,0,0-.5-.208.672.672,0,0,0-.526.225.858.858,0,0,0-.2.594.814.814,0,0,0,.2.577.687.687,0,0,0,.531.22.74.74,0,0,0,.407-.107.832.832,0,0,0,.281-.335l-.191-.1a.652.652,0,0,1-.207.27.484.484,0,0,1-.29.089.451.451,0,0,1-.365-.165.73.73,0,0,1-.145-.455H87.31Zm-1.175-.132a.479.479,0,0,1,.147-.313.449.449,0,0,1,.316-.118.429.429,0,0,1,.465.431Zm-1.067.919V244.42h.681v-.211H84.164v.211h.679v2.256Z" transform="translate(-84.164 -214.109)" fill="#404041"/>
</svg>
