<svg xmlns="http://www.w3.org/2000/svg" xmlns:xlink="http://www.w3.org/1999/xlink" width="154" height="154" viewBox="0 0 154 154">
  <defs>
    <clipPath id="clip-path">
      <rect id="Rectangle_5090" data-name="Rectangle 5090" width="154" height="154" transform="translate(46)" fill="#fff"/>
    </clipPath>
    <linearGradient id="linear-gradient" x1="0.5" x2="0.5" y2="0.771" gradientUnits="objectBoundingBox">
      <stop offset="0" stop-color="#f3f3f3" stop-opacity="0.259"/>
      <stop offset="1" stop-color="#f3f3f3"/>
    </linearGradient>
  </defs>
  <g id="Mask_Group_35" data-name="Mask Group 35" transform="translate(-46)" clip-path="url(#clip-path)">
    <g id="Group_12589" data-name="Group 12589" transform="translate(0 -27)">
      <path id="Rectangle_5089" data-name="Rectangle 5089" d="M0,0H154a0,0,0,0,1,0,0V217a4,4,0,0,1-4,4H4a4,4,0,0,1-4-4V0A0,0,0,0,1,0,0Z" transform="translate(46 -40)" fill="url(#linear-gradient)"/>
      <g id="Group_7" data-name="Group 7" transform="translate(65 43)" style="isolation: isolate">
        <path id="Path_9" data-name="Path 9" d="M248.755,75.413v3.364s-11.844-1.172-23.5,13.841a19.357,19.357,0,0,0-4.385,15.645s.486,6.823,6.288,16.667c0,0,7.992,11.941,9.747,14.621,0,0,7.312,9.7,8.187,19.5,0,0,1.562,8.432-2.484,15.794,0,0-4.581,11.16-19.933,19.107a23.2,23.2,0,0,1-12.039,2.971v-3.166a22.738,22.738,0,0,0,10.819-2.73s11.309-5.994,16.278-17.5c0,0,2.487-4.973-.339-14.477,0,0-1.755-6.774-8.189-16.131,0,0-8.09-11.551-9.991-15.013,0,0-5.507-8.725-5.119-18.813,0,0-.486-8.381,6.484-17.594,0,0,5.7-7.215,13.061-11.407a29.672,29.672,0,0,1,15.11-4.676" transform="translate(-126.755 -75.413)" fill="#404041"/>
        <rect id="Rectangle_13" data-name="Rectangle 13" width="7.214" height="99.431" transform="translate(0.002 11.062)" fill="#404041"/>
        <rect id="Rectangle_14" data-name="Rectangle 14" width="7.214" height="99.431" transform="translate(25.787 11.062)" fill="#404041"/>
        <path id="Path_10" data-name="Path 10" d="M97.838,157.306l1.851,2.73,12.479-8.678-1.951-2.826Z" transform="translate(-88.768 -100.036)" fill="#404041"/>
        <path id="Path_11" data-name="Path 11" d="M116.577,195.181l13.379-13.049,16.268-16.816s5.117-5.19,8.116-5.19c0,0,2.613.016,2.575,4.129a14.038,14.038,0,0,1-.914,4.917l-4.7,13.264-3.382,9.471-1.169,3.406a3.463,3.463,0,0,0,.766,3.2s1.517,2.271,5.025.6c0,0,1.773-.88,5.665-5.321l9.616-9.725s8.59-8.114,10.454-9.247c0,0,4.5-3.18,7.9,1.864a31.363,31.363,0,0,1,2.852,6.654s2.156,6.4,5.19,9.614a5.987,5.987,0,0,0,7.749,1.46s6.689-4.057,7.6-5.665a52.631,52.631,0,0,1-12.428,12.1,9.226,9.226,0,0,1-3.6,1.614,3.547,3.547,0,0,1-2.979-.793,16.588,16.588,0,0,1-3.754-4.761s-3.947-6.432-4.946-7.578a23.976,23.976,0,0,0-4.955-4.988,5.286,5.286,0,0,0-5.941.2,47.566,47.566,0,0,0-5.214,4.911s-23.552,23.493-25.013,24.112c0,0-1.893,1.5-3.264.815,0,0-1.1-.475-.731-2.879l4.495-16.447,2.787-10.109s1.465-4.533-.874-6.581c0,0-2.559-3.583-10.274,3.326l-15.912,13.782a.286.286,0,0,1-.391-.293" transform="translate(-95.079 -103.94)" fill="#f69227"/>
        <path id="Path_12" data-name="Path 12" d="M116.519,195.123l.077.079,13.381-13.05,16.268-16.817h0s.081-.077.225-.222a34.64,34.64,0,0,1,3.332-2.847,16.475,16.475,0,0,1,2.333-1.464,5.127,5.127,0,0,1,2.149-.627h0a2.249,2.249,0,0,1,1.273.538,4.16,4.16,0,0,1,1.189,3.4v.113c0,.027.006.1.006.216a16.63,16.63,0,0,1-.918,4.645l.1.033-.1-.038-4.7,13.262-3.38,9.476-1.171,3.4a3.055,3.055,0,0,0-.122.908,3.592,3.592,0,0,0,.91,2.4l.085-.071-.093.06a2.687,2.687,0,0,0,.66.637,3.51,3.51,0,0,0,2.055.627,5.7,5.7,0,0,0,2.453-.619c.02-.008,1.8-.9,5.7-5.345l-.085-.073.081.077,9.616-9.722-.081-.08.075.083.374-.351c.835-.785,2.945-2.76,5.052-4.664,1.055-.951,2.107-1.884,2.994-2.641a19.853,19.853,0,0,1,2.015-1.577h0l.014-.011a6.071,6.071,0,0,1,3.145-.96c1.415,0,3.089.6,4.579,2.806l.092-.062-.094.06.016.025a32.036,32.036,0,0,1,2.824,6.607s.542,1.6,1.462,3.613a23.535,23.535,0,0,0,3.754,6.041l.081-.075-.092.064a5.924,5.924,0,0,0,1.218,1.167,5.836,5.836,0,0,0,3.468,1.164,7.033,7.033,0,0,0,3.206-.836h0s1.674-1.018,3.465-2.235c.893-.606,1.817-1.267,2.581-1.875a7.141,7.141,0,0,0,1.6-1.6l-.189-.117-.053.075a52.832,52.832,0,0,1-12.346,12h0l-.015.013a9.12,9.12,0,0,1-3.536,1.581h-.018a2.836,2.836,0,0,1-.613.06,3.416,3.416,0,0,1-2.256-.831h0l-.022-.015a16.769,16.769,0,0,1-3.7-4.71h0s-.986-1.609-2.1-3.362c-.555-.874-1.144-1.786-1.652-2.552a20.371,20.371,0,0,0-1.2-1.679l-.085.073.091-.062a24.04,24.04,0,0,0-4.977-5.015h0a5.418,5.418,0,0,0-2.89-.841,5.5,5.5,0,0,0-3.172,1.042h0a47.676,47.676,0,0,0-5.23,4.923l.081.077-.078-.079s-.091.093-.266.264c-1.294,1.29-7.138,7.107-12.83,12.675-2.849,2.787-5.654,5.5-7.836,7.563-1.091,1.032-2.023,1.9-2.728,2.522-.352.31-.644.565-.871.746-.114.091-.206.164-.285.22a1,1,0,0,1-.164.1h-.013l-.011.01-.013.009a5.693,5.693,0,0,1-.836.522,3.558,3.558,0,0,1-1.541.438,1.7,1.7,0,0,1-.754-.166h0l-.006.015.006-.015-.006.015.006-.015a1.032,1.032,0,0,1-.374-.364,2.655,2.655,0,0,1-.364-1.5,5.98,5.98,0,0,1,.073-.9l-.112-.015.108.029,4.492-16.445,2.787-10.116-.109-.027.1.033a11,11,0,0,0,.457-3.029,4.737,4.737,0,0,0-1.367-3.671l-.073.085.089-.067a2.951,2.951,0,0,0-2.422-.974c-1.652,0-4.216.88-8.014,4.283l.073.083-.073-.085-15.913,13.781.073.085-.036-.1v0a.287.287,0,0,1-.081.011.147.147,0,0,1-.1-.031c-.027-.023-.056-.062-.065-.173l-.11.006.077.08-.077-.08-.11.006a.438.438,0,0,0,.141.331.366.366,0,0,0,.244.082.524.524,0,0,0,.15-.02l.022-.007,15.932-13.8c3.775-3.384,6.3-4.232,7.865-4.232a3.224,3.224,0,0,1,1.733.449,2.06,2.06,0,0,1,.391.3.924.924,0,0,1,.091.1l.02.027v.006h0l.006.011.011.008a4.526,4.526,0,0,1,1.288,3.5,10.549,10.549,0,0,1-.222,2.073c-.056.274-.114.493-.153.649-.02.077-.038.135-.05.177l-.018.06h0l-2.793,10.116-4.495,16.453v.006a6.142,6.142,0,0,0-.075.929,2.816,2.816,0,0,0,.424,1.652,1.157,1.157,0,0,0,.449.413l.044-.1-.05.1a1.907,1.907,0,0,0,.854.189,3.836,3.836,0,0,0,1.735-.509,5.615,5.615,0,0,0,.793-.509l-.069-.087.044.1a1.241,1.241,0,0,0,.22-.133c.348-.251.988-.808,1.858-1.6,6.051-5.526,22.974-22.4,22.974-22.4h0c1.679-1.764,2.981-2.994,3.861-3.773.441-.393.776-.673,1-.858.111-.091.2-.158.253-.206a.606.606,0,0,1,.085-.064l-.068-.091.064.094a5.272,5.272,0,0,1,3.045-1,5.368,5.368,0,0,1,2,.4,5.064,5.064,0,0,1,.569.278l.15.089.038.024.011.009.064-.092-.067.089a25.1,25.1,0,0,1,3.646,3.37c.42.474.742.871.958,1.151l.244.327c.027.038.047.066.06.087l.02.029h0v.006a20.035,20.035,0,0,1,1.185,1.658c.767,1.144,1.7,2.622,2.451,3.812.373.6.7,1.12.929,1.493s.369.6.372.6l.093-.06-.1.055a16.729,16.729,0,0,0,3.783,4.795l.069-.089-.073.085a3.63,3.63,0,0,0,2.4.885,2.989,2.989,0,0,0,.678-.067l-.027-.108.018.112a9.355,9.355,0,0,0,3.65-1.637l-.069-.089.064.091A52.718,52.718,0,0,0,209.6,188.768l-.094-.064-.1-.056a7.036,7.036,0,0,1-1.548,1.535c-1.129.9-2.635,1.928-3.857,2.723-.611.4-1.151.742-1.54.983-.193.122-.348.218-.457.285s-.164.1-.164.1l.059.1-.05-.1a6.8,6.8,0,0,1-3.106.813,5.6,5.6,0,0,1-3.335-1.122,6.1,6.1,0,0,1-.873-.771,3.1,3.1,0,0,1-.222-.253l-.056-.069-.017-.025h0v-.006a23.379,23.379,0,0,1-3.716-5.981c-.459-1-.826-1.9-1.071-2.547-.125-.322-.222-.586-.285-.766s-.1-.281-.1-.281a31.641,31.641,0,0,0-2.864-6.678h0a5.665,5.665,0,0,0-4.764-2.9,6.25,6.25,0,0,0-3.291,1.011l.065.091-.059-.1a24.888,24.888,0,0,0-2.435,1.933c-3.206,2.763-8.038,7.329-8.038,7.329l-9.618,9.728h0a39.576,39.576,0,0,1-4.281,4.313,12.081,12.081,0,0,1-1.026.78c-.111.075-.194.125-.247.158l-.06.033-.015.009h0l.049.1-.049-.1a5.517,5.517,0,0,1-2.356.6,3.272,3.272,0,0,1-1.926-.587,2.742,2.742,0,0,1-.457-.4c-.051-.055-.087-.1-.112-.131l-.027-.034-.006-.008h0V198.4h0a3.366,3.366,0,0,1-.856-2.254,3.182,3.182,0,0,1,.056-.611c.013-.073.027-.133.038-.171l.01-.044v-.011l-.1-.035.1.035,1.168-3.4,3.382-9.473,4.7-13.264h0a16.855,16.855,0,0,0,.929-4.71c0-.166-.008-.249-.008-.253l-.113.013h.113v-.087c0-2.036-.655-3.091-1.333-3.619a2.4,2.4,0,0,0-1.355-.538h0a5.807,5.807,0,0,0-2.586.826,29.151,29.151,0,0,0-5.61,4.4L129.82,181.994,116.4,195.079v.05Z" transform="translate(-95.02 -103.882)" fill="#404041"/>
        <path id="Path_13" data-name="Path 13" d="M163.5,253.738a2.535,2.535,0,0,0,2.7-.136,1.517,1.517,0,0,0,.546-1.223,1.567,1.567,0,0,0-.318-1.047,2.9,2.9,0,0,0-1.239-.7,3.435,3.435,0,0,1-1.07-.5.734.734,0,0,1-.258-.573.76.76,0,0,1,.262-.589.951.951,0,0,1,.662-.235,1.307,1.307,0,0,1,.756.206,1.12,1.12,0,0,1,.44.6l.711-.4a1.715,1.715,0,0,0-.7-.844,2.166,2.166,0,0,0-1.157-.293,1.858,1.858,0,0,0-1.3.455,1.5,1.5,0,0,0-.5,1.167,1.259,1.259,0,0,0,.353.908,3.5,3.5,0,0,0,1.233.715c.044.02.108.046.189.075.76.3,1.135.662,1.135,1.088a.835.835,0,0,1-.29.665,1.166,1.166,0,0,1-.78.247,1.466,1.466,0,0,1-.849-.235,1.484,1.484,0,0,1-.531-.7l-.736.422a1.824,1.824,0,0,0,.739.916m-3-2.859a2.994,2.994,0,0,0-.7-2.073,2.374,2.374,0,0,0-1.858-.775,2.51,2.51,0,0,0-1.961.839,3.205,3.205,0,0,0-.754,2.217,3.04,3.04,0,0,0,.76,2.153,2.567,2.567,0,0,0,1.984.826,2.762,2.762,0,0,0,1.521-.4,3.082,3.082,0,0,0,1.046-1.251l-.711-.39a2.433,2.433,0,0,1-.773,1.009,1.814,1.814,0,0,1-1.083.333,1.69,1.69,0,0,1-1.367-.619,2.737,2.737,0,0,1-.54-1.7h4.439Zm-4.385-.491a1.788,1.788,0,0,1,.551-1.168,1.676,1.676,0,0,1,1.18-.442,1.6,1.6,0,0,1,1.737,1.61Zm-3.81-2.153h-.8v5.584h.8Zm-.826-1.755a.577.577,0,0,0,.426.171.589.589,0,0,0,.425-1.011.6.6,0,0,0-.424-.173.584.584,0,0,0-.422.173.6.6,0,0,0,0,.839m-4.657,2.857a2.5,2.5,0,0,1,.5,1.658,2.548,2.548,0,0,1-.538,1.708,1.777,1.777,0,0,1-1.431.636,1.584,1.584,0,0,1-1.317-.6,3.172,3.172,0,0,1,.024-3.38,1.672,1.672,0,0,1,1.369-.619,1.723,1.723,0,0,1,1.39.6m.49-1.1v1.047a1.927,1.927,0,0,0-.771-.908,2.175,2.175,0,0,0-1.2-.343,2.39,2.39,0,0,0-1.9.826,3.746,3.746,0,0,0-.016,4.388,2.349,2.349,0,0,0,1.878.818,2.191,2.191,0,0,0,1.218-.341,2.042,2.042,0,0,0,.791-.937v1.135a4.333,4.333,0,0,1-.06.846,1.438,1.438,0,0,1-.2.482,1.394,1.394,0,0,1-.619.5,2.263,2.263,0,0,1-.929.183,1.941,1.941,0,0,1-1.084-.264,1.122,1.122,0,0,1-.5-.78h-.968a1.831,1.831,0,0,0,.75,1.3,3,3,0,0,0,1.733.434,3.291,3.291,0,0,0,1.51-.31,1.915,1.915,0,0,0,.889-.929,2.726,2.726,0,0,0,.2-.864q.061-.577.06-1.68v-4.61Zm-8.893,5.593a3.083,3.083,0,0,0,1-.678,2.89,2.89,0,0,0,.653-.964,3.015,3.015,0,0,0-1.658-3.93,3.115,3.115,0,0,0-1.174-.225,3.018,3.018,0,0,0-1.151.225,2.922,2.922,0,0,0-.974.656,2.976,2.976,0,0,0-.875,2.126,3.053,3.053,0,0,0,.22,1.158,2.807,2.807,0,0,0,.643.955,3.2,3.2,0,0,0,.993.678,2.914,2.914,0,0,0,1.146.235,3.045,3.045,0,0,0,1.174-.235m-2.7-1.153a2.407,2.407,0,0,1,0-3.259,2.168,2.168,0,0,1,3.114,0,2.4,2.4,0,0,1,0,3.259,2.151,2.151,0,0,1-3.11,0m-4.411-8.609h-.8v9.753h.8Zm-5.621,9.762a3.083,3.083,0,0,0,1-.678,2.973,2.973,0,0,0-.01-4.238,3.027,3.027,0,0,0-.993-.656,3.118,3.118,0,0,0-1.174-.225,3.027,3.027,0,0,0-2.78,4.164,2.8,2.8,0,0,0,.64.955,3.194,3.194,0,0,0,1,.678,2.894,2.894,0,0,0,1.144.235,3.045,3.045,0,0,0,1.173-.235m-2.7-1.155a2.407,2.407,0,0,1,0-3.259,2.168,2.168,0,0,1,3.115,0,2.4,2.4,0,0,1,0,3.259,2.152,2.152,0,0,1-3.11,0m-8.233,1.144V250.9a2.652,2.652,0,0,1,.413-1.652,1.563,1.563,0,0,1,1.3-.525,1.341,1.341,0,0,1,1.08.407,1.857,1.857,0,0,1,.349,1.239v3.444h.787v-3.787a1.829,1.829,0,0,0-2.007-2,2.35,2.35,0,0,0-1.135.266,2.251,2.251,0,0,0-.835.8v-.862h-.736v5.584Zm-8,0V250.9a2.64,2.64,0,0,1,.413-1.652,1.568,1.568,0,0,1,1.307-.524,1.349,1.349,0,0,1,1.08.407,1.868,1.868,0,0,1,.349,1.239v3.444h.786v-3.787a1.832,1.832,0,0,0-2.009-2,2.351,2.351,0,0,0-1.136.266,2.261,2.261,0,0,0-.834.8v-5.034h-.737v9.753Zm-3.585-5.412a3.284,3.284,0,0,0-.8-.274,4.444,4.444,0,0,0-.949-.1,3.113,3.113,0,0,0-2.25,5.216,2.792,2.792,0,0,0,2.1.84,4.636,4.636,0,0,0,1.064-.116,3.417,3.417,0,0,0,.9-.349v-.851a3.614,3.614,0,0,1-.908.473,2.856,2.856,0,0,1-.916.158,2.208,2.208,0,0,1-1.633-.638,2.168,2.168,0,0,1-.638-1.616,2.5,2.5,0,0,1,.619-1.77,2.155,2.155,0,0,1,1.652-.664,3.117,3.117,0,0,1,.906.135,3.056,3.056,0,0,1,.831.4Zm-7.252,2.477a2.981,2.981,0,0,0-.7-2.073,2.374,2.374,0,0,0-1.858-.775,2.508,2.508,0,0,0-1.961.839,3.2,3.2,0,0,0-.751,2.217,3.039,3.039,0,0,0,.758,2.153,2.567,2.567,0,0,0,1.984.826,2.763,2.763,0,0,0,1.52-.4,3.108,3.108,0,0,0,1.049-1.251l-.713-.39a2.434,2.434,0,0,1-.773,1.009,1.806,1.806,0,0,1-1.082.333,1.683,1.683,0,0,1-1.365-.62,2.723,2.723,0,0,1-.542-1.7h4.439Zm-4.387-.491a1.791,1.791,0,0,1,.55-1.169,1.675,1.675,0,0,1,1.18-.442A1.6,1.6,0,0,1,95,250.387Zm-3.987,3.43v-8.424h2.541v-.787H84.164v.787H86.7v8.424Z" transform="translate(-84.164 -132.205)" fill="#404041"/>
      </g>
    </g>
  </g>
</svg>
