<svg xmlns="http://www.w3.org/2000/svg" width="78.134" height="100.333" viewBox="0 0 78.134 100.333">
  <g id="LogoMark" transform="translate(-291.58 -449)">
    <g id="Group_4" data-name="Group 4" transform="translate(291.58 449)">
      <g id="acumen360" transform="translate(0 22.716)">
        <g id="Group_3" data-name="Group 3">
          <path id="Path_9" data-name="Path 9" d="M255.59,41.433c0,9.572-5.158,18.364-13.172,24.735a48.27,48.27,0,0,1-29.657,10.184V67.878a39.686,39.686,0,0,0,24.394-8.329c6.059-4.819,9.96-11.272,9.96-18.116Z" transform="translate(-191.368 -38.253)" fill="#0084ce"/>
          <path id="Path_10" data-name="Path 10" d="M223.541,58.127a8.892,8.892,0,1,0-8.892-8.892,8.893,8.893,0,0,0,8.892,8.892" transform="translate(-187.75 -40.343)" fill="#15c7e5" fill-rule="evenodd"/>
          <path id="Path_11" data-name="Path 11" d="M281.128,56.409a39.072,39.072,0,1,1-66.674-11.4l6.5,5.377a30.627,30.627,0,0,0,3.416,42.6,39.66,39.66,0,0,1,15.065-17.25,48.256,48.256,0,0,1,29.587-7.246l-.7,8.41a39.678,39.678,0,0,0-24.33,5.963A31.117,31.117,0,0,0,231.56,97.673,30.626,30.626,0,0,0,273.207,59.32Z" transform="translate(-205.428 -31.399)" fill="#154982"/>
        </g>
      </g>
      <g id="stars" transform="translate(50.06 0)">
        <path id="Path_12" data-name="Path 12" d="M234.073,33.492l2.106,4.653,5.079.563a1.584,1.584,0,0,1,.893,2.748L238.372,44.9l1.033,5.009a1.583,1.583,0,0,1-2.334,1.692l-4.443-2.529L228.185,51.6a1.584,1.584,0,0,1-2.325-1.739l1.024-4.965-3.778-3.442a1.586,1.586,0,0,1-.105-2.24,1.569,1.569,0,0,1,1-.508l5.079-.563,2.1-4.653a1.584,1.584,0,0,1,2.891,0" transform="translate(-222.588 -32.556)" fill="#15c7e5"/>
      </g>
    </g>
  </g>
</svg>
